<?xml version="1.0" encoding="UTF-8" standalone="no"?>
<!-- Created with Inkscape (http://www.inkscape.org/) -->

<svg
   width="40.697361mm"
   height="40.697361mm"
   viewBox="0 0 40.697361 40.697361"
   version="1.1"
   id="svg1"
   inkscape:version="1.4.3 (0d15f75042, 2025-12-25)"
   sodipodi:docname="shop-icon-hover.svg"
   xmlns:inkscape="http://www.inkscape.org/namespaces/inkscape"
   xmlns:sodipodi="http://sodipodi.sourceforge.net/DTD/sodipodi-0.dtd"
   xmlns="http://www.w3.org/2000/svg"
   xmlns:svg="http://www.w3.org/2000/svg">
  <sodipodi:namedview
     id="namedview1"
     pagecolor="#505050"
     bordercolor="#eeeeee"
     borderopacity="1"
     inkscape:showpageshadow="0"
     inkscape:pageopacity="0"
     inkscape:pagecheckerboard="0"
     inkscape:deskcolor="#505050"
     inkscape:document-units="mm"
     inkscape:zoom="2.1518061"
     inkscape:cx="37.410434"
     inkscape:cy="89.924459"
     inkscape:window-width="1908"
     inkscape:window-height="1023"
     inkscape:window-x="0"
     inkscape:window-y="0"
     inkscape:window-maximized="1"
     inkscape:current-layer="g5" />
  <defs
     id="defs1">
    <inkscape:path-effect
       effect="fillet_chamfer"
       id="path-effect27"
       is_visible="true"
       lpeversion="1"
       nodesatellites_param="F,0,0,1,0,0,0,1 @ F,0,0,1,0,1.3229166,0,1 @ F,0,0,1,0,1.3229166,0,1 @ F,0,0,1,0,1.3229166,0,1 @ F,0,0,1,0,1.3229166,0,1 @ F,0,0,1,0,1.3229166,0,1 @ F,0,0,1,0,1.3229166,0,1"
       radius="5"
       unit="px"
       method="auto"
       mode="F"
       chamfer_steps="1"
       flexible="false"
       use_knot_distance="true"
       apply_no_radius="true"
       apply_with_radius="true"
       only_selected="false"
       hide_knots="false" />
    <inkscape:path-effect
       effect="mirror_symmetry"
       start_point="114.72853,135.26732"
       end_point="114.72808,154.46969"
       center_point="114.72831,144.86851"
       id="path-effect25"
       is_visible="true"
       lpeversion="1.2"
       lpesatellites=""
       mode="free"
       discard_orig_path="false"
       fuse_paths="true"
       oposite_fuse="false"
       split_items="false"
       split_open="false"
       link_styles="false" />
    <inkscape:path-effect
       effect="fillet_chamfer"
       id="path-effect23"
       is_visible="true"
       lpeversion="1"
       nodesatellites_param="F,0,0,1,0,0,0,1 @ F,0,0,1,0,1.8520833,0,1 @ F,0,0,1,0,1.8520833,0,1 @ F,0,0,1,0,1.8520833,0,1"
       radius="7"
       unit="px"
       method="auto"
       mode="F"
       chamfer_steps="1"
       flexible="false"
       use_knot_distance="true"
       apply_no_radius="true"
       apply_with_radius="true"
       only_selected="false"
       hide_knots="false" />
    <inkscape:path-effect
       effect="fillet_chamfer"
       id="path-effect21"
       is_visible="true"
       lpeversion="1"
       nodesatellites_param="F,0,0,1,0,12.031249,0,1 @ F,0,0,1,0,12.031249,0,1 @ F,0,0,1,0,12.031249,0,1 @ F,0,0,1,0,12.031249,0,1"
       radius="12.03125"
       unit="mm"
       method="auto"
       mode="F"
       chamfer_steps="1"
       flexible="false"
       use_knot_distance="true"
       apply_no_radius="true"
       apply_with_radius="true"
       only_selected="false"
       hide_knots="false" />
    <inkscape:path-effect
       effect="fillet_chamfer"
       id="path-effect16"
       is_visible="true"
       lpeversion="1"
       nodesatellites_param="F,0,0,1,0,0,0,1 @ F,0,0,1,0,1.3229166,0,1 @ F,0,0,1,0,1.3229166,0,1 @ F,0,0,1,0,1.3229166,0,1 @ F,0,0,1,0,1.3229166,0,1 @ F,0,0,1,0,1.3229166,0,1 @ F,0,0,1,0,1.3229166,0,1"
       radius="5"
       unit="px"
       method="auto"
       mode="F"
       chamfer_steps="1"
       flexible="false"
       use_knot_distance="true"
       apply_no_radius="true"
       apply_with_radius="true"
       only_selected="false"
       hide_knots="false" />
    <inkscape:path-effect
       effect="mirror_symmetry"
       start_point="114.72853,135.26732"
       end_point="114.72808,154.46969"
       center_point="114.72831,144.86851"
       id="path-effect14"
       is_visible="true"
       lpeversion="1.2"
       lpesatellites=""
       mode="free"
       discard_orig_path="false"
       fuse_paths="true"
       oposite_fuse="false"
       split_items="false"
       split_open="false"
       link_styles="false" />
    <inkscape:path-effect
       effect="fillet_chamfer"
       id="path-effect12"
       is_visible="true"
       lpeversion="1"
       nodesatellites_param="F,0,0,1,0,0,0,1 @ F,0,0,1,0,1.8520833,0,1 @ F,0,0,1,0,1.8520833,0,1 @ F,0,0,1,0,1.8520833,0,1"
       radius="7"
       unit="px"
       method="auto"
       mode="F"
       chamfer_steps="1"
       flexible="false"
       use_knot_distance="true"
       apply_no_radius="true"
       apply_with_radius="true"
       only_selected="false"
       hide_knots="false" />
    <inkscape:path-effect
       effect="fillet_chamfer"
       id="path-effect10"
       is_visible="true"
       lpeversion="1"
       nodesatellites_param="F,0,0,1,0,12.031249,0,1 @ F,0,0,1,0,12.031249,0,1 @ F,0,0,1,0,12.031249,0,1 @ F,0,0,1,0,12.031249,0,1"
       radius="12.03125"
       unit="mm"
       method="auto"
       mode="F"
       chamfer_steps="1"
       flexible="false"
       use_knot_distance="true"
       apply_no_radius="true"
       apply_with_radius="true"
       only_selected="false"
       hide_knots="false" />
    <inkscape:path-effect
       effect="fillet_chamfer"
       id="path-effect8"
       is_visible="true"
       lpeversion="1"
       nodesatellites_param="F,0,0,1,0,0,0,1 @ F,0,0,1,0,1.8520833,0,1 @ F,0,0,1,0,1.8520833,0,1 @ F,0,0,1,0,1.8520833,0,1"
       radius="7"
       unit="px"
       method="auto"
       mode="F"
       chamfer_steps="1"
       flexible="false"
       use_knot_distance="true"
       apply_no_radius="true"
       apply_with_radius="true"
       only_selected="false"
       hide_knots="false" />
    <inkscape:path-effect
       effect="fillet_chamfer"
       id="path-effect7"
       is_visible="true"
       lpeversion="1"
       nodesatellites_param="F,0,0,1,0,0,0,1 @ F,0,0,1,0,1.3229166,0,1 @ F,0,0,1,0,1.3229166,0,1 @ F,0,0,1,0,1.3229166,0,1 @ F,0,0,1,0,1.3229166,0,1 @ F,0,0,1,0,1.3229166,0,1 @ F,0,0,1,0,1.3229166,0,1"
       radius="5"
       unit="px"
       method="auto"
       mode="F"
       chamfer_steps="1"
       flexible="false"
       use_knot_distance="true"
       apply_no_radius="true"
       apply_with_radius="true"
       only_selected="false"
       hide_knots="false" />
    <inkscape:path-effect
       effect="mirror_symmetry"
       start_point="114.72853,135.26732"
       end_point="114.72808,154.46969"
       center_point="114.72831,144.86851"
       id="path-effect6"
       is_visible="true"
       lpeversion="1.2"
       lpesatellites=""
       mode="free"
       discard_orig_path="false"
       fuse_paths="true"
       oposite_fuse="false"
       split_items="false"
       split_open="false"
       link_styles="false" />
    <inkscape:path-effect
       effect="fillet_chamfer"
       id="path-effect5"
       is_visible="true"
       lpeversion="1"
       nodesatellites_param="F,0,0,1,0,1.2836298,0,1 @ F,0,0,1,0,1.6607595,0,1 @ F,0,0,1,0,0.98763701,0,1"
       radius="0"
       unit="px"
       method="auto"
       mode="F"
       chamfer_steps="1"
       flexible="false"
       use_knot_distance="true"
       apply_no_radius="true"
       apply_with_radius="true"
       only_selected="false"
       hide_knots="false" />
    <inkscape:path-effect
       effect="fillet_chamfer"
       id="path-effect3"
       is_visible="true"
       lpeversion="1"
       nodesatellites_param="F,0,0,1,0,12.031249,0,1 @ F,0,0,1,0,12.031249,0,1 @ F,0,0,1,0,12.031249,0,1 @ F,0,0,1,0,12.031249,0,1"
       radius="12.03125"
       unit="mm"
       method="auto"
       mode="F"
       chamfer_steps="1"
       flexible="false"
       use_knot_distance="true"
       apply_no_radius="true"
       apply_with_radius="true"
       only_selected="false"
       hide_knots="false" />
  </defs>
  <g
     inkscape:label="Ulepszenia"
     inkscape:groupmode="layer"
     id="g5"
     transform="translate(-94.379393,-126.46437)"
     style="display:none">
    <path
       style="fill:#ffffff;fill-opacity:1;stroke:#000000;stroke-width:0.161;stroke-dashoffset:87.1374"
       id="path1"
       width="70.003571"
       height="70.003571"
       x="79.726288"
       y="111.81126"
       ry="0"
       inkscape:path-effect="#path-effect10"
       sodipodi:type="rect"
       rx="0"
       d="m 91.757537,111.81126 h 45.941073 a 12.031249,12.031249 45 0 1 12.03125,12.03125 v 45.94107 a 12.031249,12.031249 135 0 1 -12.03125,12.03125 H 91.757537 A 12.031249,12.031249 45 0 1 79.726288,169.78358 v -45.94107 a 12.031249,12.031249 135 0 1 12.031249,-12.03125 z"
       inkscape:label="Obrys zewnętrzny"
       transform="matrix(0.5,0,0,0.5,57.364037,73.406521)" />
    <path
       id="path2"
       style="fill:#542034;fill-opacity:1;stroke:#000000;stroke-width:0.161;stroke-dashoffset:87.1374"
       sodipodi:type="inkscape:offset"
       inkscape:radius="-3.4368994"
       inkscape:original="M 91.757812 111.81055 C 85.0925 111.81055 79.726562 117.17648 79.726562 123.8418 L 79.726562 169.7832 C 79.726562 176.44852 85.0925 181.81445 91.757812 181.81445 L 137.69922 181.81445 C 144.36453 181.81445 149.73047 176.44852 149.73047 169.7832 L 149.73047 123.8418 C 149.73047 117.17648 144.36453 111.81055 137.69922 111.81055 L 91.757812 111.81055 z "
       d="m 91.757812,115.24805 c -4.820721,0 -8.59375,3.77302 -8.59375,8.59375 v 45.9414 c 0,4.82073 3.773029,8.59375 8.59375,8.59375 h 45.941408 c 4.82072,0 8.59375,-3.77302 8.59375,-8.59375 v -45.9414 c 0,-4.82073 -3.77303,-8.59375 -8.59375,-8.59375 z"
       inkscape:label="Obrys wewnętrzny"
       transform="matrix(0.5,0,0,0.5,57.364037,73.406521)" />
    <g
       id="g4"
       inkscape:label="Ikona"
       transform="matrix(0.5,0,0,0.5,57.364367,75.79155)"
       style="stroke-width:2.2;stroke-dasharray:none">
      <path
         style="fill:#542034;fill-opacity:1;stroke:#ffffff;stroke-width:4;stroke-linecap:round;stroke-linejoin:miter;stroke-dasharray:none;stroke-dashoffset:87.1374;stroke-opacity:1"
         d="M 105,140.42187 V 126.1177 c 0,-1.02287 0.67917,-2.33126 1.56888,-2.83527 7.47325,-4.23352 14.03355,-1.63655 16.91502,-0.0196 0.89125,0.50012 1.55516,1.83205 1.55516,2.85492 l 0,14.56199"
         id="path3"
         sodipodi:nodetypes="cccc"
         inkscape:label="Raczka"
         transform="translate(0,-5.0488228)"
         inkscape:original-d="m 105,140.42187 v -16.15625 c 10.74219,-7.39063 20.03906,0 20.03906,0 v 16.41407"
         inkscape:path-effect="#path-effect12" />
      <path
         style="fill:none;fill-opacity:1;stroke:#ffffff;stroke-width:4;stroke-linecap:round;stroke-linejoin:miter;stroke-dasharray:none;stroke-dashoffset:87.1374;stroke-opacity:1"
         d="m 114.72894,126.88147 14.59311,6.8e-4 a 1.5949069,1.5949069 39.677142 0 1 1.56736,1.3002 l 6.32068,33.61718 a 1.0973106,1.0973106 129.67714 0 1 -1.07846,1.30007 l -20.08083,-9.4e-4 a 56451.409,56451.409 0.0013427 0 0 -2.64583,-6e-5 H 93.324137 a 1.0973106,1.0973106 50.325543 0 1 -1.078405,-1.30012 l 6.322256,-33.61689 a 1.5949069,1.5949069 140.32554 0 1 1.567432,-1.30012 h 14.5931"
         id="path4"
         inkscape:path-effect="#path-effect14;#path-effect16"
         inkscape:original-d="M 114.72807,163.0986 H 92.00122 l 6.81128,-36.21713 h 15.91602"
         sodipodi:nodetypes="cccc"
         inkscape:label="Koszyk" />
    </g>
  </g>
  <g
     inkscape:label="UlepszeniaHower"
     inkscape:groupmode="layer"
     id="layer1"
     transform="matrix(1.0958142,-0.09587132,0.09587132,1.0958142,-119.44713,-129.532)"
     style="display:inline">
    <path
       style="fill:#ffffff;fill-opacity:1;stroke:#000000;stroke-width:0.161;stroke-dashoffset:87.1374"
       id="rect2"
       width="70.003571"
       height="70.003571"
       x="79.726288"
       y="111.81126"
       ry="0"
       inkscape:path-effect="#path-effect3"
       sodipodi:type="rect"
       rx="0"
       d="m 91.757537,111.81126 h 45.941073 a 12.031249,12.031249 45 0 1 12.03125,12.03125 v 45.94107 a 12.031249,12.031249 135 0 1 -12.03125,12.03125 H 91.757537 A 12.031249,12.031249 45 0 1 79.726288,169.78358 v -45.94107 a 12.031249,12.031249 135 0 1 12.031249,-12.03125 z"
       inkscape:label="Obrys zewnętrzny"
       transform="matrix(0.5,0,0,0.5,57.364037,73.406521)" />
    <path
       id="rect3"
       style="fill:#542034;fill-opacity:1;stroke:#000000;stroke-width:0.161;stroke-dashoffset:87.1374"
       sodipodi:type="inkscape:offset"
       inkscape:radius="-3.4368994"
       inkscape:original="M 91.757812 111.81055 C 85.0925 111.81055 79.726562 117.17648 79.726562 123.8418 L 79.726562 169.7832 C 79.726562 176.44852 85.0925 181.81445 91.757812 181.81445 L 137.69922 181.81445 C 144.36453 181.81445 149.73047 176.44852 149.73047 169.7832 L 149.73047 123.8418 C 149.73047 117.17648 144.36453 111.81055 137.69922 111.81055 L 91.757812 111.81055 z "
       d="m 91.757812,115.24805 c -4.820721,0 -8.59375,3.77302 -8.59375,8.59375 v 45.9414 c 0,4.82073 3.773029,8.59375 8.59375,8.59375 h 45.941408 c 4.82072,0 8.59375,-3.77302 8.59375,-8.59375 v -45.9414 c 0,-4.82073 -3.77303,-8.59375 -8.59375,-8.59375 z"
       inkscape:label="Obrys wewnętrzny"
       transform="matrix(0.5,0,0,0.5,57.364037,73.406521)" />
    <g
       id="g6"
       inkscape:label="Ikona"
       transform="matrix(0.5,0,0,0.5,57.364367,75.79155)"
       style="stroke-width:2.2;stroke-dasharray:none">
      <path
         style="fill:#542034;fill-opacity:1;stroke:#ffffff;stroke-width:4;stroke-linecap:round;stroke-linejoin:miter;stroke-dasharray:none;stroke-dashoffset:87.1374;stroke-opacity:1"
         d="M 105,140.42187 V 126.1177 c 0,-1.02287 0.67917,-2.33126 1.56888,-2.83527 7.47325,-4.23352 14.03355,-1.63655 16.91502,-0.0196 0.89125,0.50012 1.55516,1.83205 1.55516,2.85492 l 0,14.56199"
         id="path6"
         sodipodi:nodetypes="cccc"
         inkscape:label="Raczka"
         transform="translate(0,-5.0488228)"
         inkscape:original-d="m 105,140.42187 v -16.15625 c 10.74219,-7.39063 20.03906,0 20.03906,0 v 16.41407"
         inkscape:path-effect="#path-effect8" />
      <path
         style="fill:none;fill-opacity:1;stroke:#ffffff;stroke-width:4;stroke-linecap:round;stroke-linejoin:miter;stroke-dasharray:none;stroke-dashoffset:87.1374;stroke-opacity:1"
         d="m 114.72893,126.88147 14.59311,6.8e-4 a 1.5949069,1.5949069 39.677142 0 1 1.56736,1.3002 l 6.32068,33.61718 a 1.0973106,1.0973106 129.67714 0 1 -1.07846,1.30007 l -20.08083,-9.4e-4 a 56451.409,56451.409 0.0013427 0 0 -2.64583,-6e-5 H 93.324137 a 1.0973106,1.0973106 50.325543 0 1 -1.078405,-1.30012 l 6.322256,-33.61689 a 1.5949069,1.5949069 140.32554 0 1 1.567432,-1.30012 h 14.5931"
         id="path5"
         inkscape:path-effect="#path-effect6;#path-effect7"
         inkscape:original-d="M 114.72807,163.0986 H 92.00122 l 6.81128,-36.21713 h 15.91602"
         sodipodi:nodetypes="cccc"
         inkscape:label="Koszyk" />
    </g>
  </g>
  <g
     inkscape:label="UlepszeniaPressed"
     inkscape:groupmode="layer"
     id="g20"
     transform="matrix(1.0958142,-0.09587132,0.09587132,1.0958142,-119.44713,-129.532)"
     style="display:none">
    <path
       style="fill:#ffffff;fill-opacity:1;stroke:#000000;stroke-width:0.161;stroke-dashoffset:87.1374"
       id="path16"
       width="70.003571"
       height="70.003571"
       x="79.726288"
       y="111.81126"
       ry="0"
       inkscape:path-effect="#path-effect21"
       sodipodi:type="rect"
       rx="0"
       d="m 91.757537,111.81126 h 45.941073 a 12.031249,12.031249 45 0 1 12.03125,12.03125 v 45.94107 a 12.031249,12.031249 135 0 1 -12.03125,12.03125 H 91.757537 A 12.031249,12.031249 45 0 1 79.726288,169.78358 v -45.94107 a 12.031249,12.031249 135 0 1 12.031249,-12.03125 z"
       inkscape:label="Obrys zewnętrzny"
       transform="matrix(0.5,0,0,0.5,57.364037,73.406521)" />
    <path
       id="path17"
       style="fill:#843252;fill-opacity:1;stroke:#000000;stroke-width:0.161;stroke-dashoffset:87.1374"
       sodipodi:type="inkscape:offset"
       inkscape:radius="-3.4368994"
       inkscape:original="M 91.757812 111.81055 C 85.0925 111.81055 79.726562 117.17648 79.726562 123.8418 L 79.726562 169.7832 C 79.726562 176.44852 85.0925 181.81445 91.757812 181.81445 L 137.69922 181.81445 C 144.36453 181.81445 149.73047 176.44852 149.73047 169.7832 L 149.73047 123.8418 C 149.73047 117.17648 144.36453 111.81055 137.69922 111.81055 L 91.757812 111.81055 z "
       d="m 91.757812,115.24805 c -4.820721,0 -8.59375,3.77302 -8.59375,8.59375 v 45.9414 c 0,4.82073 3.773029,8.59375 8.59375,8.59375 h 45.941408 c 4.82072,0 8.59375,-3.77302 8.59375,-8.59375 v -45.9414 c 0,-4.82073 -3.77303,-8.59375 -8.59375,-8.59375 z"
       inkscape:label="Obrys wewnętrzny"
       transform="matrix(0.5,0,0,0.5,57.364037,73.406521)" />
    <g
       id="g19"
       inkscape:label="Ikona"
       transform="matrix(0.5,0,0,0.5,57.364367,75.79155)"
       style="stroke-width:2.2;stroke-dasharray:none">
      <path
         style="fill:#542034;fill-opacity:1;stroke:#ffffff;stroke-width:4;stroke-linecap:round;stroke-linejoin:miter;stroke-dasharray:none;stroke-dashoffset:87.1374;stroke-opacity:1"
         d="M 105,140.42187 V 126.1177 c 0,-1.02287 0.67917,-2.33126 1.56888,-2.83527 7.47325,-4.23352 14.03355,-1.63655 16.91502,-0.0196 0.89125,0.50012 1.55516,1.83205 1.55516,2.85492 l 0,14.56199"
         id="path18"
         sodipodi:nodetypes="cccc"
         inkscape:label="Raczka"
         transform="translate(0,-5.0488228)"
         inkscape:original-d="m 105,140.42187 v -16.15625 c 10.74219,-7.39063 20.03906,0 20.03906,0 v 16.41407"
         inkscape:path-effect="#path-effect23" />
      <path
         style="fill:none;fill-opacity:1;stroke:#ffffff;stroke-width:4;stroke-linecap:round;stroke-linejoin:miter;stroke-dasharray:none;stroke-dashoffset:87.1374;stroke-opacity:1"
         d="m 114.72894,126.88147 14.59311,6.8e-4 a 1.5949069,1.5949069 39.677142 0 1 1.56736,1.3002 l 6.32068,33.61718 a 1.0973106,1.0973106 129.67714 0 1 -1.07846,1.30007 l -20.08083,-9.4e-4 a 56451.409,56451.409 0.0013427 0 0 -2.64583,-6e-5 H 93.324137 a 1.0973106,1.0973106 50.325543 0 1 -1.078405,-1.30012 l 6.322256,-33.61689 a 1.5949069,1.5949069 140.32554 0 1 1.567432,-1.30012 h 14.5931"
         id="path19"
         inkscape:path-effect="#path-effect25;#path-effect27"
         inkscape:original-d="M 114.72807,163.0986 H 92.00122 l 6.81128,-36.21713 h 15.91602"
         sodipodi:nodetypes="cccc"
         inkscape:label="Koszyk" />
    </g>
  </g>
</svg>
